
<global>
amp_veltrack=0
ampeg_attack=0.01
ampeg_release=0.50
loop_mode=loop_continuous
</global>

<group>
group_label=PP
xf_cccurve=gain
xfin_hicc1=42
xfout_hicc1=85
xfout_locc1=42

<region>
hikey=g6
hivel=127
lokey=f#6
loop_end=298228
loop_start=130992
loop_xfade=49051
lovel=0
offset=23299
pitch_keycenter=g6
sample=Violins2_tremolo_PP_G6.opus
</region>

<region>
hikey=g5
hivel=127
lokey=f#5
loop_end=298228
loop_start=130992
loop_xfade=49051
lovel=0
offset=13778
pitch_keycenter=g5
sample=Violins2_tremolo_PP_G5.opus
</region>

<region>
hikey=g4
hivel=127
lokey=f#4
loop_end=298228
loop_start=130992
loop_xfade=49051
lovel=0
offset=13960
pitch_keycenter=g4
sample=Violins2_tremolo_PP_G4.opus
</region>

<region>
hivel=127
key=g3
loop_end=298228
loop_start=130992
loop_xfade=49051
lovel=0
offset=34187
sample=Violins2_tremolo_PP_G3.opus
</region>

<region>
hikey=f6
hivel=127
lokey=e6
loop_end=298228
loop_start=130992
loop_xfade=49051
lovel=0
offset=16182
pitch_keycenter=f6
sample=Violins2_tremolo_PP_F6.opus
</region>

<region>
hikey=f5
hivel=127
lokey=e5
loop_end=298228
loop_start=130992
loop_xfade=49051
lovel=0
offset=24221
pitch_keycenter=f5
sample=Violins2_tremolo_PP_F5.opus
</region>

<region>
hikey=f4
hivel=127
lokey=e4
loop_end=298228
loop_start=130992
loop_xfade=49051
lovel=0
offset=22357
pitch_keycenter=f4
sample=Violins2_tremolo_PP_F4.opus
</region>

<region>
hikey=d#6
hivel=127
lokey=d6
loop_end=298228
loop_start=130992
loop_xfade=49051
lovel=0
offset=15264
pitch_keycenter=d#6
sample=Violins2_tremolo_PP_D#6.opus
</region>

<region>
hikey=d#5
hivel=127
lokey=d5
loop_end=298228
loop_start=130992
loop_xfade=49051
lovel=0
offset=16626
pitch_keycenter=d#5
sample=Violins2_tremolo_PP_D#5.opus
</region>

<region>
hikey=d#4
hivel=127
lokey=d4
loop_end=298228
loop_start=130992
loop_xfade=49051
lovel=0
offset=16838
pitch_keycenter=d#4
sample=Violins2_tremolo_PP_D#4.opus
</region>

<region>
hikey=c#6
hivel=127
lokey=c6
loop_end=298228
loop_start=130992
loop_xfade=49051
lovel=0
offset=11448
pitch_keycenter=c#6
sample=Violins2_tremolo_PP_C#6.opus
</region>

<region>
hikey=c#5
hivel=127
lokey=c5
loop_end=297580
loop_start=130707
loop_xfade=48945
lovel=0
offset=14498
pitch_keycenter=c#5
sample=Violins2_tremolo_PP_C#5.opus
</region>

<region>
hikey=c#4
hivel=127
lokey=c4
loop_end=295039
loop_start=129591
loop_xfade=48527
lovel=0
offset=14351
pitch_keycenter=c#4
sample=Violins2_tremolo_PP_C#4.opus
</region>

<region>
hikey=E7
hivel=127
lokey=a#6
loop_end=298228
loop_start=130992
loop_xfade=49051
lovel=0
offset=23578
pitch_keycenter=B6
sample=Violins2_tremolo_PP_B6.opus
</region>

<region>
hikey=b5
hivel=127
lokey=a#5
loop_end=298228
loop_start=130992
loop_xfade=49051
lovel=0
offset=31367
pitch_keycenter=b5
sample=Violins2_tremolo_PP_B5.opus
</region>

<region>
hikey=b4
hivel=127
lokey=a#4
loop_end=298228
loop_start=130992
loop_xfade=49051
lovel=0
offset=17165
pitch_keycenter=b4
sample=Violins2_tremolo_PP_B4.opus
</region>

<region>
hikey=b3
hivel=127
lokey=a#3
loop_end=298228
loop_start=130992
loop_xfade=49051
lovel=0
offset=15101
pitch_keycenter=b3
sample=Violins2_tremolo_PP_B3.opus
</region>

<region>
hikey=a6
hivel=127
lokey=g#6
loop_end=298228
loop_start=130992
loop_xfade=49051
lovel=0
offset=17571
pitch_keycenter=a6
sample=Violins2_tremolo_PP_A6.opus
</region>

<region>
hikey=a5
hivel=127
lokey=g#5
loop_end=298228
loop_start=130992
loop_xfade=49051
lovel=0
offset=12032
pitch_keycenter=a5
sample=Violins2_tremolo_PP_A5.opus
</region>

<region>
hikey=a4
hivel=127
lokey=g#4
loop_end=298228
loop_start=130992
loop_xfade=49051
lovel=0
offset=23667
pitch_keycenter=a4
sample=Violins2_tremolo_PP_A4.opus
</region>

<region>
hikey=a3
hivel=127
lokey=g#3
loop_end=298228
loop_start=130992
loop_xfade=49051
lovel=0
offset=19318
pitch_keycenter=a3
sample=Violins2_tremolo_PP_A3.opus
</region>
</group>

<group>
group_label=MF
xf_cccurve=gain
xfin_hicc1=85
xfin_locc1=42
xfout_hicc1=127
xfout_locc1=85

<region>
hikey=g6
hivel=127
lokey=f#6
loop_end=246225
loop_start=108150
loop_xfade=40498
lovel=0
offset=3764
pitch_keycenter=g6
sample=Violins2_tremolo_MF_G6.opus
</region>

<region>
hikey=g5
hivel=127
lokey=f#5
loop_end=245499
loop_start=107831
loop_xfade=40378
lovel=0
offset=10640
pitch_keycenter=g5
sample=Violins2_tremolo_MF_G5.opus
</region>

<region>
hikey=g4
hivel=127
lokey=f#4
loop_end=254462
loop_start=111768
loop_xfade=41853
lovel=0
offset=3952
pitch_keycenter=g4
sample=Violins2_tremolo_MF_G4.opus
</region>

<region>
hivel=127
key=g3
loop_end=251752
loop_start=110578
loop_xfade=41407
lovel=0
offset=14071
sample=Violins2_tremolo_MF_G3.opus
</region>

<region>
hikey=f6
hivel=127
lokey=e6
loop_end=245798
loop_start=107963
loop_xfade=40427
lovel=0
offset=3814
pitch_keycenter=f6
sample=Violins2_tremolo_MF_F6.opus
</region>

<region>
hikey=f5
hivel=127
lokey=e5
loop_end=244062
loop_start=107200
loop_xfade=40142
lovel=0
offset=2438
pitch_keycenter=f5
sample=Violins2_tremolo_MF_F5.opus
</region>

<region>
hikey=f4
hivel=127
lokey=e4
loop_end=254814
loop_start=111923
loop_xfade=41910
lovel=0
offset=3229
pitch_keycenter=f4
sample=Violins2_tremolo_MF_F4.opus
</region>

<region>
hikey=d#6
hivel=127
lokey=d6
loop_end=249575
loop_start=109622
loop_xfade=41049
lovel=0
offset=4061
pitch_keycenter=d#6
sample=Violins2_tremolo_MF_D#6.opus
</region>

<region>
hikey=d#5
hivel=127
lokey=d5
loop_end=247813
loop_start=108848
loop_xfade=40759
lovel=0
offset=2615
pitch_keycenter=d#5
sample=Violins2_tremolo_MF_D#5.opus
</region>

<region>
hikey=d#4
hivel=127
lokey=d4
loop_end=246567
loop_start=108300
loop_xfade=40554
lovel=0
offset=3328
pitch_keycenter=d#4
sample=Violins2_tremolo_MF_D#4.opus
</region>

<region>
hikey=c#6
hivel=127
lokey=c6
loop_end=238754
loop_start=104869
loop_xfade=39269
lovel=0
offset=14919
pitch_keycenter=c#6
sample=Violins2_tremolo_MF_C#6.opus
</region>

<region>
hikey=c#5
hivel=127
lokey=c5
loop_end=251262
loop_start=110363
loop_xfade=41326
lovel=0
offset=3418
pitch_keycenter=c#5
sample=Violins2_tremolo_MF_C#5.opus
</region>

<region>
hikey=c#4
hivel=127
lokey=c4
loop_end=245030
loop_start=107625
loop_xfade=40301
lovel=0
offset=3261
pitch_keycenter=c#4
sample=Violins2_tremolo_MF_C#4.opus
</region>

<region>
hikey=E7
hivel=127
lokey=a#6
loop_end=242512
loop_start=106519
loop_xfade=39887
lovel=0
offset=10616
pitch_keycenter=B6
sample=Violins2_tremolo_MF_B6.opus
</region>

<region>
hikey=b5
hivel=127
lokey=a#5
loop_end=247556
loop_start=108735
loop_xfade=40717
lovel=0
offset=3044
pitch_keycenter=b5
sample=Violins2_tremolo_MF_B5.opus
</region>

<region>
hikey=b4
hivel=127
lokey=a#4
loop_end=249923
loop_start=109775
loop_xfade=41106
lovel=0
offset=3425
pitch_keycenter=b4
sample=Violins2_tremolo_MF_B4.opus
</region>

<region>
hikey=b3
hivel=127
lokey=a#3
loop_end=255322
loop_start=112146
loop_xfade=41994
lovel=0
offset=10126
pitch_keycenter=b3
sample=Violins2_tremolo_MF_B3.opus
</region>

<region>
hikey=a6
hivel=127
lokey=g#6
loop_end=243623
loop_start=107007
loop_xfade=40070
lovel=0
offset=8432
pitch_keycenter=a6
sample=Violins2_tremolo_MF_A6.opus
</region>

<region>
hikey=a5
hivel=127
lokey=g#5
loop_end=247032
loop_start=108505
loop_xfade=40630
lovel=0
offset=8449
pitch_keycenter=a5
sample=Violins2_tremolo_MF_A5.opus
</region>

<region>
hikey=a4
hivel=127
lokey=g#4
loop_end=250334
loop_start=109955
loop_xfade=41174
lovel=0
offset=5052
pitch_keycenter=a4
sample=Violins2_tremolo_MF_A4.opus
</region>

<region>
hikey=a3
hivel=127
lokey=g#3
loop_end=246237
loop_start=108155
loop_xfade=40500
lovel=0
offset=1744
pitch_keycenter=a3
sample=Violins2_tremolo_MF_A3.opus
</region>
</group>

<group>
group_label=FF
xf_cccurve=gain
xfin_hicc1=127
xfin_locc1=85
xfout_hicc1=127
xfout_locc1=127

<region>
hikey=g6
hivel=127
lokey=f#6
loop_end=246101
loop_start=108096
loop_xfade=40477
lovel=0
offset=2527
pitch_keycenter=g6
sample=Violins2_tremolo_FF_G6.opus
</region>

<region>
hikey=g5
hivel=127
lokey=f#5
loop_end=244335
loop_start=107320
loop_xfade=40187
lovel=0
offset=2591
pitch_keycenter=g5
sample=Violins2_tremolo_FF_G5.opus
</region>

<region>
hikey=g4
hivel=127
lokey=f#4
loop_end=249754
loop_start=109700
loop_xfade=41078
lovel=0
offset=1796
pitch_keycenter=g4
sample=Violins2_tremolo_FF_G4.opus
</region>

<region>
hivel=127
key=g3
loop_end=246838
loop_start=108419
loop_xfade=40599
lovel=0
offset=13360
sample=Violins2_tremolo_FF_G3.opus
</region>

<region>
hikey=f6
hivel=127
lokey=e6
loop_end=249344
loop_start=109520
loop_xfade=41011
lovel=0
offset=4772
pitch_keycenter=f6
sample=Violins2_tremolo_FF_F6.opus
</region>

<region>
hikey=f5
hivel=127
lokey=e5
loop_end=244507
loop_start=107395
loop_xfade=40215
lovel=0
offset=3462
pitch_keycenter=f5
sample=Violins2_tremolo_FF_F5.opus
</region>

<region>
hikey=f4
hivel=127
lokey=e4
loop_end=247948
loop_start=108907
loop_xfade=40781
lovel=0
offset=2923
pitch_keycenter=f4
sample=Violins2_tremolo_FF_F4.opus
</region>

<region>
hikey=d#6
hivel=127
lokey=d6
loop_end=240497
loop_start=105634
loop_xfade=39556
lovel=0
offset=2299
pitch_keycenter=d#6
sample=Violins2_tremolo_FF_D#6.opus
</region>

<region>
hikey=d#5
hivel=127
lokey=d5
loop_end=247134
loop_start=108549
loop_xfade=40647
lovel=0
offset=5990
pitch_keycenter=d#5
sample=Violins2_tremolo_FF_D#5.opus
</region>

<region>
hikey=d#4
hivel=127
lokey=d4
loop_end=244680
loop_start=107471
loop_xfade=40244
lovel=0
offset=1850
pitch_keycenter=d#4
sample=Violins2_tremolo_FF_D#4.opus
</region>

<region>
hikey=c#6
hivel=127
lokey=c6
loop_end=245957
loop_start=108032
loop_xfade=40454
lovel=0
offset=2817
pitch_keycenter=c#6
sample=Violins2_tremolo_FF_C#6.opus
</region>

<region>
hikey=c#5
hivel=127
lokey=c5
loop_end=246729
loop_start=108372
loop_xfade=40581
lovel=0
offset=4743
pitch_keycenter=c#5
sample=Violins2_tremolo_FF_C#5.opus
</region>

<region>
hikey=c#4
hivel=127
lokey=c4
loop_end=248650
loop_start=109215
loop_xfade=40897
lovel=0
offset=1724
pitch_keycenter=c#4
sample=Violins2_tremolo_FF_C#4.opus
</region>

<region>
hikey=E7
hivel=127
lokey=a#6
loop_end=243189
loop_start=106817
loop_xfade=39998
lovel=0
offset=5795
pitch_keycenter=B6
sample=Violins2_tremolo_FF_B6.opus
</region>

<region>
hikey=b5
hivel=127
lokey=a#5
loop_end=247167
loop_start=108564
loop_xfade=40653
lovel=0
offset=2595
pitch_keycenter=b5
sample=Violins2_tremolo_FF_B5.opus
</region>

<region>
hikey=b4
hivel=127
lokey=a#4
loop_end=247633
loop_start=108768
loop_xfade=40730
lovel=0
offset=1960
pitch_keycenter=b4
sample=Violins2_tremolo_FF_B4.opus
</region>

<region>
hikey=b3
hivel=127
lokey=a#3
loop_end=249266
loop_start=109486
loop_xfade=40998
lovel=0
offset=1606
pitch_keycenter=b3
sample=Violins2_tremolo_FF_B3.opus
</region>

<region>
hikey=a6
hivel=127
lokey=g#6
loop_end=245737
loop_start=107936
loop_xfade=40417
lovel=0
offset=4419
pitch_keycenter=a6
sample=Violins2_tremolo_FF_A6.opus
</region>

<region>
hikey=a5
hivel=127
lokey=g#5
loop_end=243875
loop_start=107118
loop_xfade=40111
lovel=0
offset=3016
pitch_keycenter=a5
sample=Violins2_tremolo_FF_A5.opus
</region>

<region>
hikey=a4
hivel=127
lokey=g#4
loop_end=244093
loop_start=107214
loop_xfade=40147
lovel=0
offset=1918
pitch_keycenter=a4
sample=Violins2_tremolo_FF_A4.opus
</region>

<region>
hikey=a3
hivel=127
lokey=g#3
loop_end=243774
loop_start=107074
loop_xfade=40095
lovel=0
offset=4169
pitch_keycenter=a3
sample=Violins2_tremolo_FF_A3.opus
</region>
</group>